<svg xmlns="http://www.w3.org/2000/svg" width="33.719" height="33.888" viewBox="0 0 33.719 33.888">
  <path id="Search_and_thou_shall_find_" data-name="Search (and thou shall find)" d="M943.378,1280.239a8.467,8.467,0,0,1,6.867,13.368l-.829,1.171-1.165.833a8.331,8.331,0,0,1-4.872,1.571,8.472,8.472,0,0,1,0-16.943m0-4.236a12.708,12.708,0,0,0,0,25.415,12.534,12.534,0,0,0,7.316-2.355l10.155,10.205a2.1,2.1,0,0,0,2.985,0,2.128,2.128,0,0,0,0-3l-10.155-10.206a12.708,12.708,0,0,0-10.3-20.06Z" transform="translate(-930.734 -1276.003)" fill="#f1fbff"/>
</svg>
