<svg xmlns="http://www.w3.org/2000/svg" width="29.673" height="33.887" viewBox="0 0 29.673 33.887">
  <path id="Simon_says" data-name="Simon says" d="M1248.2,1280.345a10.59,10.59,0,0,1,.031,21.18l-.126-.008c-.116-.008-.232-.015-.35-.021l-.711-.029-.682.2-7.085,2.122.86-3.392.473-1.865-1.094-1.584a10.587,10.587,0,0,1,8.686-16.607m0-4.236a14.822,14.822,0,0,0-12.173,23.252l-2.7,10.635,14.248-4.267c.208.008.412.031.622.031a14.826,14.826,0,0,0,0-29.651Z" transform="translate(-1233.327 -1276.109)" fill="#fff"/>
</svg>
