<svg xmlns="http://www.w3.org/2000/svg" width="33.918" height="33.888" viewBox="0 0 33.918 33.888">
  <path id="Write" d="M336.128,1309.891a2.119,2.119,0,0,1-2.12-2.119v-29.65a2.119,2.119,0,0,1,2.12-2.119h8.48a2.118,2.118,0,1,1,0,4.236h-5.3a1.059,1.059,0,0,0-1.059,1.058v23.3a1.06,1.06,0,0,0,1.059,1.06h23.319a1.06,1.06,0,0,0,1.06-1.06V1299.3a2.12,2.12,0,0,1,4.24,0v8.472a2.12,2.12,0,0,1-2.12,2.119Zm6.36-8.473v-9.53l15.847-15.267a2.118,2.118,0,0,1,2.991,0l5.98,5.976a2.111,2.111,0,0,1,0,2.988l-15.279,15.832Zm4.239-7.73v3.495h3.5l12.608-13.063-3.03-3.028Z" transform="translate(-334.009 -1276.003)" fill="#fff"/>
</svg>
